<?xml version="1.0" encoding="UTF-8" standalone="no"?>
<svg
   xmlns:dc="http://purl.org/dc/elements/1.1/"
   xmlns:cc="http://creativecommons.org/ns#"
   xmlns:rdf="http://www.w3.org/1999/02/22-rdf-syntax-ns#"
   xmlns:svg="http://www.w3.org/2000/svg"
   xmlns="http://www.w3.org/2000/svg"
   xmlns:sodipodi="http://sodipodi.sourceforge.net/DTD/sodipodi-0.dtd"
   xmlns:inkscape="http://www.inkscape.org/namespaces/inkscape"
   inkscape:version="1.0 (4035a4fb49, 2020-05-01)"
   sodipodi:docname="image2.svg"
   id="svg4"
   version="1.1"
   fill="currentColor"
   class="bi bi-image"
   viewBox="0 0 17 16"
   height="1em"
   width="1.0625em">
  <metadata
     id="metadata10">
    <rdf:RDF>
      <cc:Work
         rdf:about="">
        <dc:format>image/svg+xml</dc:format>
        <dc:type
           rdf:resource="http://purl.org/dc/dcmitype/StillImage" />
      </cc:Work>
    </rdf:RDF>
  </metadata>
  <defs
     id="defs8" />
  <sodipodi:namedview
     inkscape:current-layer="svg4"
     inkscape:window-maximized="1"
     inkscape:window-y="-9"
     inkscape:window-x="2391"
     inkscape:cy="8"
     inkscape:cx="8.5"
     inkscape:zoom="51.875"
     showgrid="false"
     id="namedview6"
     inkscape:window-height="1001"
     inkscape:window-width="1920"
     inkscape:pageshadow="2"
     inkscape:pageopacity="0"
     guidetolerance="10"
     gridtolerance="10"
     objecttolerance="10"
     borderopacity="1"
     bordercolor="#666666"
     pagecolor="#ffffff"
     inkscape:document-rotation="0" />
  <path
     sodipodi:nodetypes="ssscccccccccssssssssssssss"
     style="fill:#113c68;fill-opacity:1;stroke:#113c68;stroke-opacity:1"
     id="path2"
     d="m 14.002,2 h -12 c -0.5522847,0 -1,0.4477153 -1,1 v 9 L 3.648,9.646 C 3.8165138,9.4780995 4.0799889,9.4521702 4.278,9.584 L 6.938,11.357 7.7691867,10.525813 9.3884639,8.9065361 10.648,7.647 C 10.800072,7.4947786 11.032476,7.4569173 11.225,7.553 L 15.002,9.5 V 3 c 0,-0.5522847 -0.447715,-1 -1,-1 z m -12,-1 c -1.1045695,0 -2,0.8954305 -2,2 v 10 c 0,1.104569 0.8954305,2 2,2 h 12 c 1.104569,0 2,-0.895431 2,-2 V 3 c 0,-1.1045695 -0.895431,-2 -2,-2 z m 4,4.5 c 0,1.9999991 -3,1.9999991 -3,0 0,-1.9999991 3,-1.9999991 3,0 z"
     fill-rule="evenodd" />
</svg>
