<?xml version="1.0" encoding="UTF-8" standalone="no"?>
<svg
   xmlns:dc="http://purl.org/dc/elements/1.1/"
   xmlns:cc="http://creativecommons.org/ns#"
   xmlns:rdf="http://www.w3.org/1999/02/22-rdf-syntax-ns#"
   xmlns:svg="http://www.w3.org/2000/svg"
   xmlns="http://www.w3.org/2000/svg"
   xmlns:sodipodi="http://sodipodi.sourceforge.net/DTD/sodipodi-0.dtd"
   xmlns:inkscape="http://www.inkscape.org/namespaces/inkscape"
   inkscape:version="1.0 (4035a4fb49, 2020-05-01)"
   sodipodi:docname="English.svg"
   preserveAspectRatio="xMidYMid meet"
   viewBox="0, 0, 400,201.5686274509804"
   height="40"
   width="64"
   version="1.1"
   id="svg">
  <metadata
     id="metadata13">
    <rdf:RDF>
      <cc:Work
         rdf:about="">
        <dc:format>image/svg+xml</dc:format>
        <dc:type
           rdf:resource="http://purl.org/dc/dcmitype/StillImage" />
      </cc:Work>
    </rdf:RDF>
  </metadata>
  <defs
     id="defs11" />
  <sodipodi:namedview
     inkscape:current-layer="svg"
     inkscape:window-maximized="1"
     inkscape:window-y="-9"
     inkscape:window-x="-9"
     inkscape:cy="20"
     inkscape:cx="32"
     inkscape:zoom="18.875"
     showgrid="false"
     id="namedview9"
     inkscape:window-height="1271"
     inkscape:window-width="2400"
     inkscape:pageshadow="2"
     inkscape:pageopacity="0"
     guidetolerance="10"
     gridtolerance="10"
     objecttolerance="10"
     borderopacity="1"
     bordercolor="#666666"
     pagecolor="#ffffff" />
  <g
     transform="matrix(0.99921742,0,0,1.2406147,0.10092096,-24.339748)"
     id="svgg">
    <path
       fill-rule="evenodd"
       fill="#f9f7f8"
       stroke="none"
       d="m 99.95,0.151 c 55.027,0.028 145.073,0.028 200.1,0 C 355.078,0.123 310.055,0.1 200,0.1 89.945,0.1 44.922,0.123 99.95,0.151 M 1.251,0.777 c -0.215,0.136 -0.215,0.203 0,0.371 0.194,0.153 86.596,43.406 119.515,59.83 13.188,6.579 12.203,6.043 11.692,6.366 -0.181,0.114 -6.037,0.191 -14.716,0.192 L 103.327,67.539 52.52,42.127 C 24.577,28.15 1.328,16.543 0.857,16.333 L 0,15.95 v 3.604 c 0,3.563 0.005,3.606 0.454,3.74 0.37,0.111 17.485,8.648 75.453,37.636 0.998,0.499 4.1,2.032 6.894,3.406 4.853,2.388 5.502,2.806 4.783,3.082 -0.175,0.067 -19.953,0.122 -43.951,0.122 H 0 v 6.553 6.552 h 89.677 c 69.481,0 89.732,-0.054 89.92,-0.242 0.186,-0.186 0.242,-9.327 0.242,-39.915 V 0.814 l -0.454,-0.111 c -0.249,-0.06 -3.13,-0.085 -6.401,-0.054 l -5.948,0.057 -0.101,30.141 c -0.1,29.981 -0.116,30.645 -0.767,30.644 C 165.66,61.491 45.766,1.488 45.324,1.013 44.921,0.58 1.923,0.35 1.251,0.777 m 219.162,-0.04 c -0.361,0.148 -0.371,79.305 -0.01,79.666 0.188,0.188 20.439,0.242 89.92,0.242 H 400 V 74.093 67.541 L 356.202,67.49 C 317.455,67.445 312.399,67.405 312.354,67.137 312.317,66.92 324.738,60.63 356.14,44.96 l 43.837,-21.875 0.011,-11.139 C 399.999,1.384 399.945,0.264 399.456,1.073 399.367,1.22 369.505,16.236 333.095,34.441 l -66.2,33.102 -14.543,-0.052 c -12.745,-0.045 -14.55,-0.089 -14.593,-0.354 -0.036,-0.216 18.651,-9.649 65.672,-33.149 36.147,-18.066 65.722,-32.913 65.722,-32.993 0,-0.583 -13.702,-0.599 -14.285,-0.016 -0.489,0.489 -120.513,60.513 -121.002,60.513 -0.69,0 -0.7,-0.403 -0.801,-30.645 L 232.964,0.706 226.815,0.67 c -3.383,-0.02 -6.263,0.01 -6.402,0.067 M 0,127.52 v 6.553 h 43.633 c 23.998,0 43.776,0.055 43.951,0.122 0.719,0.276 0.07,0.694 -4.783,3.082 -2.794,1.374 -5.896,2.907 -6.894,3.406 C 17.939,169.671 0.824,178.208 0.454,178.319 L 0,178.455 v 11.579 11.579 h 200 c 199.866,0 200,0 200,-0.403 0,-0.234 -0.134,-0.404 -0.319,-0.404 -0.175,0 -0.833,-0.294 -1.462,-0.655 -0.628,-0.36 -30.288,-15.217 -65.909,-33.014 -46.499,-23.232 -64.753,-32.444 -64.715,-32.661 0.045,-0.265 1.853,-0.309 14.599,-0.354 l 14.547,-0.052 51.402,25.707 c 28.271,14.139 51.504,25.707 51.629,25.707 0.161,0 0.225,-1.02 0.216,-3.478 l -0.011,-3.478 -43.837,-21.875 c -31.415,-15.676 -43.823,-21.96 -43.786,-22.177 0.045,-0.268 5.101,-0.308 43.848,-0.353 L 400,134.072 v -6.552 -6.552 h -89.677 c -69.481,0 -89.732,0.054 -89.92,0.242 -0.186,0.186 -0.242,9.328 -0.242,39.919 v 39.677 H 200 179.839 v -39.677 c 0,-30.591 -0.056,-39.733 -0.242,-39.919 -0.188,-0.188 -20.439,-0.242 -89.92,-0.242 H 0 v 6.552 m 162.297,6.749 c 0.482,0.305 2.767,-0.857 -66.052,33.557 l -65.952,32.98 H 15.432 c -11.798,0 -14.844,-0.051 -14.779,-0.252 0.045,-0.138 29.834,-15.143 66.197,-33.345 l 66.114,-33.093 14.516,-0.019 c 8.781,-0.011 14.635,0.057 14.817,0.172 m 4.43,6.243 c 0.143,0.267 0.194,9.91 0.159,30.293 l -0.051,29.901 H 106.2 c -40.263,0 -60.649,-0.068 -60.675,-0.202 -0.047,-0.234 120.131,-60.382 120.647,-60.383 0.19,0 0.44,0.176 0.555,0.391 M 294.4,170.204 c 33.125,16.554 60.229,30.212 60.232,30.351 0.004,0.201 -12.205,0.242 -60.731,0.201 l -60.736,-0.05 -0.051,-29.901 c -0.052,-30.562 -0.049,-30.675 0.714,-30.691 0.19,-0.004 27.447,13.536 60.572,30.09"
       id="path0" />
    <path
       fill-rule="evenodd"
       fill="#05256c"
       stroke="none"
       d="m 45.8,1.002 c 0.113,0.33 119.797,60.098 120.228,60.04 0.401,-0.054 0.403,-0.207 0.403,-30.094 V 0.907 L 106.082,0.857 C 67.039,0.824 45.756,0.875 45.8,1.002 m 187.761,0.056 c -0.053,0.139 -0.073,13.68 -0.044,30.091 l 0.052,29.839 0.413,0.059 c 0.462,0.066 120.252,-59.759 120.252,-60.056 0,-0.31 -120.555,-0.242 -120.673,0.067 M 0,45.464 v 21.875 h 43.649 c 29.493,0 43.649,-0.067 43.649,-0.206 0,-0.113 -1.316,-0.861 -2.924,-1.663 C 82.765,64.668 63.27,54.917 41.051,43.8 18.832,32.684 0.506,23.589 0.326,23.589 0.028,23.589 0,25.442 0,45.464 M 356.105,45.23 c -23.754,11.883 -43.192,21.718 -43.195,21.857 -0.005,0.201 8.834,0.252 43.542,0.252 H 400 V 45.464 c 0,-20.706 -0.019,-21.874 -0.353,-21.856 -0.194,0.01 -19.788,9.74 -43.542,21.622 M 0,156.149 c 0,20.701 0.019,21.875 0.353,21.87 0.499,-0.008 86.802,-43.215 86.899,-43.506 0.062,-0.184 -9.996,-0.239 -43.586,-0.239 H 0 v 21.875 m 312.91,-21.623 c 0.006,0.251 86.357,43.509 86.838,43.502 0.2,-0.003 0.252,-4.515 0.252,-21.879 v -21.875 h -43.548 c -34.708,0 -43.547,0.051 -43.542,0.252 M 105.589,170.517 C 72.68,186.992 45.83,200.548 45.922,200.64 c 0.092,0.092 27.244,0.144 60.338,0.116 l 60.171,-0.05 v -30.041 -30.04 l -0.504,-0.032 c -0.313,-0.021 -23.164,11.312 -60.338,29.924 m 127.972,-29.741 c -0.053,0.139 -0.073,13.68 -0.044,30.091 l 0.052,29.839 60.171,0.05 c 34.37,0.029 60.247,-0.025 60.348,-0.126 0.202,-0.202 -119.439,-60.106 -120.044,-60.106 -0.213,0 -0.43,0.114 -0.483,0.252"
       id="path1" />
    <path
       fill-rule="evenodd"
       fill="#cc142c"
       stroke="none"
       d="m 180.847,40.681 c 0,35.581 -0.033,39.719 -0.314,40.121 l -0.314,0.448 H 90.11 0 v 19.556 19.557 h 90.11 90.109 l 0.314,0.448 c 0.281,0.402 0.314,4.54 0.314,40.121 v 39.673 H 200 219.153 v -39.673 c 0,-35.581 0.033,-39.719 0.314,-40.121 l 0.314,-0.448 H 309.89 400 V 100.806 81.25 h -90.11 -90.109 l -0.314,-0.448 c -0.281,-0.402 -0.314,-4.54 -0.314,-40.121 V 1.008 H 200 180.847 V 40.681 M 370.298,1.29 c -0.108,0.281 -2.377,1.533 -2.778,1.533 -0.116,0 -0.346,0.136 -0.512,0.302 -0.166,0.166 -0.545,0.361 -0.843,0.434 -0.297,0.073 -0.585,0.193 -0.641,0.266 -0.132,0.176 -11.945,6.058 -12.161,6.056 -0.091,-10e-4 -0.302,0.134 -0.468,0.3 -0.166,0.166 -0.542,0.363 -0.836,0.436 -0.293,0.074 -0.627,0.216 -0.742,0.316 -0.353,0.309 -13.463,6.809 -13.732,6.809 -0.139,0 -0.283,0.073 -0.32,0.162 -0.085,0.206 -13.493,6.902 -13.811,6.898 -0.129,-0.002 -0.265,0.07 -0.302,0.161 -0.037,0.09 -18.842,9.548 -41.789,21.018 l -41.723,20.854 13.298,0.052 13.298,0.051 4.624,-2.32 c 2.543,-1.276 4.703,-2.32 4.799,-2.32 0.097,0 0.312,-0.136 0.478,-0.302 0.167,-0.166 0.546,-0.361 0.843,-0.434 0.297,-0.073 0.586,-0.193 0.641,-0.268 0.127,-0.172 11.947,-6.052 12.165,-6.052 0.089,0 0.298,-0.136 0.464,-0.302 0.166,-0.166 0.546,-0.362 0.843,-0.434 0.297,-0.073 0.585,-0.194 0.641,-0.269 0.127,-0.172 11.947,-6.052 12.165,-6.052 0.089,0 0.298,-0.135 0.464,-0.302 0.166,-0.166 0.545,-0.363 0.841,-0.437 0.296,-0.074 0.659,-0.256 0.806,-0.403 0.148,-0.148 0.508,-0.328 0.802,-0.402 0.293,-0.074 0.627,-0.215 0.742,-0.314 0.295,-0.256 11.836,-6.004 12.053,-6.004 0.099,0 0.316,-0.136 0.482,-0.303 0.166,-0.166 0.542,-0.362 0.836,-0.436 0.293,-0.073 0.627,-0.214 0.742,-0.313 0.364,-0.313 13.461,-6.811 13.729,-6.811 0.141,0 0.286,-0.072 0.323,-0.16 0.086,-0.203 13.495,-6.902 13.811,-6.899 0.129,0.001 0.265,-0.071 0.302,-0.161 0.072,-0.174 13.465,-6.897 13.735,-6.895 0.088,0.001 0.269,-0.095 0.403,-0.214 0.134,-0.119 7.86,-4.02 17.168,-8.669 l 16.925,-8.454 h -13.829 c -11.669,0 -13.845,0.044 -13.936,0.282 M 0,8.448 v 6.665 l 0.554,0.132 c 0.305,0.072 0.691,0.245 0.857,0.383 0.167,0.139 0.53,0.319 0.807,0.401 0.277,0.082 0.607,0.232 0.734,0.333 0.126,0.1 2.53,1.318 5.342,2.705 2.812,1.387 5.249,2.61 5.416,2.716 0.166,0.107 0.529,0.284 0.806,0.395 0.277,0.11 0.64,0.292 0.807,0.403 0.166,0.111 0.529,0.293 0.806,0.403 0.277,0.111 0.64,0.285 0.806,0.386 0.167,0.102 2.616,1.331 5.444,2.73 2.828,1.4 5.277,2.632 5.444,2.739 0.166,0.107 0.529,0.285 0.806,0.395 0.277,0.111 0.64,0.284 0.806,0.384 0.167,0.101 3.705,1.875 7.863,3.943 4.159,2.069 7.697,3.837 7.863,3.931 0.167,0.093 13.469,6.756 29.561,14.807 l 29.258,14.636 h 13.257 c 11.76,0 13.228,-0.034 13.005,-0.302 -0.138,-0.166 -0.358,-0.302 -0.489,-0.302 -0.273,0 -8.559,-4.109 -8.928,-4.427 -0.134,-0.116 -0.371,-0.21 -0.527,-0.21 -0.156,0 -0.515,-0.182 -0.797,-0.404 -0.282,-0.221 -0.644,-0.403 -0.806,-0.403 -0.162,0 -0.525,-0.181 -0.806,-0.403 -0.282,-0.222 -0.645,-0.403 -0.807,-0.403 -0.162,0 -0.524,-0.182 -0.806,-0.404 -0.282,-0.221 -0.594,-0.403 -0.693,-0.403 -0.234,0 -8.55,-4.15 -8.871,-4.427 -0.134,-0.115 -0.371,-0.21 -0.527,-0.21 -0.156,0 -0.515,-0.181 -0.796,-0.403 -0.282,-0.222 -0.645,-0.403 -0.807,-0.403 -0.162,0 -0.524,-0.182 -0.806,-0.404 -0.282,-0.221 -0.645,-0.403 -0.807,-0.403 -0.161,0 -0.524,-0.181 -0.806,-0.403 -0.282,-0.222 -0.594,-0.403 -0.693,-0.403 -0.229,0 -8.546,-4.147 -8.862,-4.419 -0.129,-0.111 -0.466,-0.26 -0.748,-0.331 -0.282,-0.071 -0.618,-0.256 -0.747,-0.411 -0.129,-0.156 -0.393,-0.283 -0.586,-0.283 -0.194,0 -0.582,-0.181 -0.864,-0.403 -0.282,-0.222 -0.645,-0.403 -0.807,-0.403 -0.161,0 -0.524,-0.182 -0.806,-0.403 -0.282,-0.222 -0.594,-0.404 -0.693,-0.404 -0.229,0 -8.546,-4.147 -8.862,-4.418 -0.129,-0.112 -0.466,-0.26 -0.748,-0.331 C 77.465,40.341 77.129,40.156 77,40 c -0.129,-0.155 -0.393,-0.282 -0.586,-0.282 -0.193,0 -0.582,-0.182 -0.864,-0.403 -0.282,-0.222 -0.645,-0.404 -0.807,-0.404 -0.161,0 -0.524,-0.181 -0.806,-0.403 -0.282,-0.222 -0.594,-0.403 -0.693,-0.403 -0.229,0 -8.546,-4.147 -8.862,-4.419 -0.129,-0.111 -0.465,-0.26 -0.748,-0.331 -0.282,-0.07 -0.618,-0.256 -0.747,-0.411 -0.129,-0.156 -0.393,-0.283 -0.586,-0.283 -0.193,0 -0.582,-0.181 -0.864,-0.403 -0.282,-0.222 -0.645,-0.403 -0.807,-0.403 -0.161,0 -0.524,-0.182 -0.806,-0.403 -0.282,-0.222 -0.645,-0.404 -0.806,-0.404 -0.162,0 -0.525,-0.181 -0.807,-0.403 -0.282,-0.222 -0.595,-0.403 -0.695,-0.403 -0.23,0 -6.928,-3.339 -7.247,-3.613 -0.129,-0.111 -0.465,-0.259 -0.748,-0.33 -0.282,-0.071 -0.618,-0.256 -0.747,-0.412 -0.129,-0.155 -0.393,-0.282 -0.586,-0.282 -0.193,0 -0.582,-0.182 -0.864,-0.403 -0.282,-0.222 -0.645,-0.404 -0.806,-0.404 -0.162,0 -0.525,-0.181 -0.807,-0.403 -0.282,-0.222 -0.645,-0.403 -0.806,-0.403 -0.162,0 -0.525,-0.182 -0.807,-0.403 -0.282,-0.222 -0.595,-0.404 -0.695,-0.404 -0.221,0 -6.92,-3.332 -7.229,-3.596 -0.119,-0.102 -0.437,-0.252 -0.706,-0.334 -0.268,-0.082 -0.624,-0.268 -0.791,-0.412 -0.166,-0.145 -0.548,-0.325 -0.848,-0.399 -0.301,-0.075 -0.652,-0.264 -0.781,-0.419 -0.129,-0.156 -0.393,-0.283 -0.586,-0.283 -0.193,0 -0.582,-0.182 -0.864,-0.403 -0.282,-0.222 -0.645,-0.404 -0.806,-0.404 -0.162,0 -0.525,-0.181 -0.807,-0.403 -0.282,-0.222 -0.595,-0.403 -0.695,-0.403 -0.23,0 -6.928,-3.339 -7.247,-3.613 -0.129,-0.111 -0.465,-0.259 -0.747,-0.33 -0.282,-0.071 -0.614,-0.25 -0.737,-0.398 -0.123,-0.149 -0.484,-0.327 -0.801,-0.397 -0.317,-0.07 -0.685,-0.257 -0.817,-0.416 -0.132,-0.159 -0.398,-0.29 -0.592,-0.29 -0.193,0 -0.582,-0.181 -0.864,-0.403 C 17.203,10.06 16.84,9.879 16.679,9.879 16.517,9.879 16.154,9.698 15.872,9.476 15.59,9.254 15.277,9.073 15.177,9.073 14.947,9.073 8.249,5.733 7.931,5.46 7.801,5.349 7.465,5.2 7.183,5.13 6.901,5.059 6.569,4.879 6.446,4.731 6.323,4.583 5.962,4.404 5.645,4.335 5.328,4.265 4.96,4.078 4.828,3.918 4.696,3.759 4.43,3.629 4.236,3.629 4.043,3.629 3.654,3.448 3.372,3.226 3.09,3.004 2.728,2.823 2.566,2.823 2.404,2.823 2.056,2.653 1.791,2.446 1.527,2.238 1.016,2.004 0.655,1.926 L 0,1.782 V 8.448 M 125.504,138.83 c -4.435,2.259 -8.201,4.161 -8.367,4.228 -0.544,0.216 -1.103,0.484 -1.411,0.675 -0.167,0.104 -2.979,1.52 -6.25,3.147 -3.271,1.627 -6.084,3.031 -6.25,3.119 -0.167,0.088 -0.529,0.259 -0.807,0.381 -0.277,0.122 -0.64,0.306 -0.806,0.41 -0.166,0.103 -2.979,1.519 -6.25,3.146 -3.271,1.628 -6.084,3.031 -6.25,3.119 -0.166,0.088 -0.529,0.26 -0.807,0.382 -0.277,0.122 -0.64,0.303 -0.806,0.403 -0.166,0.1 -0.529,0.281 -0.806,0.403 -0.278,0.122 -0.641,0.308 -0.807,0.413 -0.166,0.105 -2.616,1.339 -5.443,2.742 -2.828,1.402 -5.278,2.623 -5.444,2.712 -0.166,0.089 -0.529,0.261 -0.806,0.383 -0.278,0.122 -0.641,0.304 -0.807,0.403 -0.166,0.1 -0.529,0.282 -0.806,0.404 -0.278,0.122 -0.64,0.307 -0.807,0.412 -0.166,0.106 -2.616,1.339 -5.443,2.742 -2.828,1.403 -5.278,2.633 -5.444,2.734 -0.166,0.101 -0.529,0.274 -0.806,0.384 -0.278,0.111 -0.64,0.282 -0.807,0.382 -0.166,0.099 -0.529,0.28 -0.806,0.402 -0.277,0.122 -0.64,0.308 -0.807,0.413 -0.166,0.105 -2.616,1.339 -5.443,2.742 -2.828,1.402 -5.277,2.633 -5.444,2.733 -0.166,0.101 -0.529,0.274 -0.806,0.385 -0.277,0.11 -0.64,0.282 -0.807,0.381 -0.166,0.1 -0.529,0.281 -0.806,0.402 -0.277,0.122 -0.64,0.299 -0.807,0.394 -0.166,0.094 -0.506,0.276 -0.756,0.405 -0.249,0.128 -0.612,0.318 -0.806,0.422 -0.194,0.104 -2.304,1.156 -4.688,2.337 -2.384,1.181 -4.47,2.23 -4.637,2.331 -0.166,0.1 -0.529,0.274 -0.806,0.384 -0.277,0.111 -0.64,0.292 -0.807,0.403 -0.166,0.112 -0.529,0.293 -0.806,0.404 -0.277,0.11 -0.64,0.277 -0.807,0.371 -0.166,0.094 -0.506,0.276 -0.756,0.404 -0.249,0.128 -0.612,0.318 -0.806,0.422 -0.194,0.105 -2.303,1.156 -4.688,2.337 -2.384,1.181 -4.47,2.23 -4.637,2.331 -0.166,0.101 -0.529,0.274 -0.806,0.385 -0.277,0.11 -0.64,0.292 -0.807,0.403 -0.166,0.111 -0.529,0.292 -0.806,0.403 -0.493,0.197 -0.692,0.299 -1.512,0.777 -0.222,0.129 -0.63,0.334 -0.907,0.456 -0.513,0.226 -0.931,0.432 -1.563,0.771 -0.194,0.105 -1.94,0.974 -3.881,1.933 -1.94,0.959 -3.664,1.827 -3.831,1.928 -0.166,0.101 -0.529,0.279 -0.806,0.394 -1.946,0.812 -2.25,0.792 12.138,0.795 l 13.65,0.003 0.504,-0.504 c 0.277,-0.277 0.653,-0.504 0.834,-0.504 0.182,0 0.561,-0.182 0.843,-0.403 0.282,-0.222 0.645,-0.404 0.807,-0.404 0.161,0 0.524,-0.181 0.806,-0.403 0.282,-0.222 0.682,-0.403 0.889,-0.403 0.207,0 0.376,-0.084 0.376,-0.186 0,-0.102 0.335,-0.297 0.744,-0.432 0.41,-0.135 0.841,-0.327 0.958,-0.427 0.304,-0.26 8.623,-4.399 8.84,-4.399 0.099,0 0.411,-0.181 0.693,-0.403 0.282,-0.222 0.645,-0.403 0.807,-0.403 0.161,0 0.524,-0.182 0.806,-0.403 0.282,-0.222 0.682,-0.404 0.889,-0.404 0.206,0 0.376,-0.083 0.376,-0.186 0,-0.102 0.335,-0.296 0.744,-0.431 0.41,-0.135 0.841,-0.328 0.958,-0.428 0.304,-0.259 8.623,-4.398 8.84,-4.398 0.099,0 0.411,-0.182 0.693,-0.403 0.282,-0.222 0.645,-0.404 0.806,-0.404 0.162,0 0.525,-0.181 0.807,-0.403 0.282,-0.222 0.643,-0.403 0.802,-0.403 0.159,0 0.426,-0.136 0.592,-0.302 0.166,-0.166 0.542,-0.363 0.836,-0.436 0.293,-0.074 0.627,-0.214 0.742,-0.312 0.299,-0.255 10.236,-5.2 10.449,-5.2 0.099,0 0.41,-0.181 0.692,-0.403 0.282,-0.222 0.643,-0.403 0.802,-0.403 0.159,0 0.426,-0.136 0.592,-0.303 0.166,-0.166 0.542,-0.362 0.836,-0.436 0.293,-0.073 0.627,-0.213 0.741,-0.311 0.3,-0.256 10.236,-5.2 10.45,-5.2 0.099,0 0.41,-0.182 0.692,-0.404 0.282,-0.221 0.643,-0.403 0.802,-0.403 0.159,0 0.426,-0.136 0.592,-0.302 0.166,-0.166 0.542,-0.362 0.835,-0.436 0.294,-0.074 0.628,-0.214 0.742,-0.312 0.3,-0.255 10.236,-5.2 10.45,-5.2 0.099,0 0.41,-0.181 0.692,-0.403 0.282,-0.222 0.643,-0.403 0.802,-0.403 0.159,0 0.425,-0.136 0.592,-0.303 0.166,-0.166 0.542,-0.362 0.835,-0.436 0.294,-0.073 0.628,-0.213 0.742,-0.311 0.3,-0.256 10.236,-5.2 10.45,-5.2 0.098,0 0.41,-0.182 0.692,-0.404 0.281,-0.221 0.642,-0.403 0.802,-0.403 0.159,0 0.425,-0.136 0.592,-0.302 0.166,-0.166 0.545,-0.362 0.842,-0.434 0.297,-0.073 0.586,-0.192 0.641,-0.265 0.133,-0.175 10.335,-5.249 10.554,-5.249 0.093,0 0.399,-0.181 0.681,-0.403 0.282,-0.222 0.643,-0.403 0.803,-0.403 0.159,0 0.425,-0.136 0.591,-0.302 0.167,-0.167 0.546,-0.362 0.843,-0.435 0.297,-0.072 0.586,-0.191 0.641,-0.264 0.131,-0.173 11.947,-6.056 12.163,-6.056 0.09,0 0.3,-0.136 0.466,-0.302 0.167,-0.166 0.546,-0.361 0.843,-0.434 0.297,-0.073 0.585,-0.193 0.641,-0.268 0.055,-0.074 2.618,-1.384 5.696,-2.909 3.077,-1.526 5.594,-2.812 5.594,-2.858 0,-0.046 -6.01,-0.073 -13.357,-0.061 l -13.356,0.023 -8.065,4.107 m 144.052,-4.075 c 0,0.043 2.518,1.329 5.595,2.857 3.077,1.529 5.625,2.855 5.662,2.947 0.037,0.092 0.181,0.167 0.321,0.167 0.269,0 13.378,6.5 13.732,6.809 0.114,0.1 0.448,0.242 0.742,0.316 0.293,0.073 0.669,0.269 0.835,0.436 0.166,0.166 0.377,0.301 0.468,0.3 0.216,-0.002 12.03,5.88 12.162,6.055 0.055,0.074 0.344,0.194 0.641,0.267 0.297,0.072 0.676,0.268 0.842,0.434 0.166,0.166 0.383,0.302 0.482,0.302 0.217,0 11.758,5.749 12.053,6.004 0.115,0.099 0.449,0.241 0.742,0.314 0.294,0.074 0.67,0.27 0.836,0.436 0.166,0.167 0.383,0.303 0.482,0.303 0.217,0 11.758,5.748 12.053,6.004 0.115,0.099 0.449,0.24 0.742,0.314 0.294,0.074 0.67,0.27 0.836,0.436 0.166,0.166 0.383,0.302 0.482,0.302 0.217,0 11.758,5.749 12.053,6.004 0.115,0.099 0.449,0.241 0.742,0.314 0.294,0.074 0.654,0.255 0.802,0.402 0.147,0.148 0.51,0.329 0.806,0.404 0.296,0.074 0.675,0.271 0.841,0.437 0.166,0.166 0.376,0.302 0.466,0.302 0.217,0 10.419,5.076 10.55,5.248 0.056,0.074 0.344,0.193 0.641,0.266 0.298,0.072 0.661,0.252 0.809,0.4 0.147,0.147 0.51,0.329 0.806,0.403 0.296,0.074 0.675,0.271 0.841,0.437 0.166,0.166 0.375,0.302 0.464,0.302 0.218,0 12.037,5.88 12.165,6.052 0.055,0.075 0.344,0.196 0.641,0.268 0.297,0.073 0.676,0.269 0.843,0.435 0.166,0.166 0.376,0.302 0.466,0.302 0.215,0 12.032,5.883 12.163,6.055 0.055,0.073 0.344,0.192 0.641,0.265 0.297,0.073 0.676,0.268 0.843,0.434 0.166,0.166 0.403,0.302 0.527,0.302 0.124,0 0.651,0.227 1.172,0.504 1.555,0.828 1.454,1.263 1.454,-6.25 0,-6.434 -0.018,-6.754 -0.373,-6.754 -0.204,0 -23.589,-11.612 -51.965,-25.804 l -51.593,-25.805 -13.256,-0.002 c -7.291,-0.001 -13.257,0.033 -13.257,0.076"
       id="path2" />
    <path
       fill-rule="evenodd"
       fill="#cc2c4b"
       stroke="none"
       d="m 180.579,0.94 c -0.075,0.074 -0.135,18.033 -0.135,39.908 0,31.597 -0.052,39.807 -0.252,39.936 -0.139,0.09 -40.762,0.209 -90.273,0.265 l -90.02,0.101 90.16,0.05 90.16,0.05 0.314,-0.448 c 0.281,-0.402 0.314,-4.54 0.314,-40.121 V 1.008 H 200 219.153 v 39.673 c 0,35.581 0.033,39.719 0.314,40.121 l 0.314,0.448 90.16,-0.05 90.16,-0.05 -90.061,-0.101 c -62.365,-0.07 -90.125,-0.166 -90.271,-0.313 -0.146,-0.145 -0.227,-12.611 -0.262,-40.02 L 219.456,0.907 200.085,0.856 C 189.431,0.828 180.653,0.865 180.579,0.94 m 189.363,0.19 c -0.147,0.177 -7.938,4.159 -17.313,8.847 -9.374,4.688 -38.795,19.399 -65.378,32.691 -26.584,13.292 -48.336,24.235 -48.337,24.318 -0.002,0.083 6.22,0.151 13.825,0.151 h 13.827 l 64.55,-32.294 c 35.502,-17.761 65.207,-32.612 66.011,-33.002 0.804,-0.39 1.462,-0.782 1.462,-0.872 0,-0.352 -28.352,-0.194 -28.647,0.161 M 0,1.364 c 0,0.308 0.172,0.456 0.655,0.562 0.361,0.078 0.872,0.312 1.136,0.52 0.265,0.207 0.613,0.377 0.775,0.377 0.162,0 0.524,0.181 0.806,0.403 0.282,0.222 0.671,0.403 0.864,0.403 0.194,0 0.46,0.13 0.592,0.289 0.132,0.16 0.5,0.347 0.817,0.417 0.317,0.069 0.678,0.248 0.801,0.396 0.123,0.148 0.455,0.328 0.737,0.399 0.282,0.07 0.618,0.219 0.748,0.33 0.318,0.273 7.016,3.613 7.246,3.613 0.1,0 0.413,0.181 0.695,0.403 0.282,0.222 0.645,0.403 0.807,0.403 0.161,0 0.524,0.181 0.806,0.403 0.282,0.222 0.671,0.403 0.864,0.403 0.194,0 0.46,0.131 0.592,0.29 0.132,0.159 0.5,0.346 0.817,0.416 0.317,0.07 0.678,0.248 0.801,0.397 0.123,0.148 0.455,0.327 0.737,0.398 0.282,0.071 0.618,0.219 0.747,0.33 0.319,0.274 7.017,3.613 7.247,3.613 0.1,0 0.413,0.181 0.695,0.403 0.282,0.222 0.645,0.403 0.807,0.403 0.161,0 0.524,0.182 0.806,0.404 0.282,0.221 0.671,0.403 0.864,0.403 0.193,0 0.457,0.127 0.586,0.283 0.129,0.155 0.48,0.344 0.781,0.419 0.3,0.074 0.682,0.254 0.848,0.399 0.167,0.144 0.523,0.33 0.791,0.412 0.269,0.082 0.587,0.232 0.706,0.334 0.309,0.264 7.008,3.596 7.229,3.596 0.1,0 0.413,0.182 0.695,0.404 0.282,0.221 0.645,0.403 0.807,0.403 0.161,0 0.524,0.181 0.806,0.403 0.282,0.222 0.645,0.403 0.807,0.403 0.161,0 0.524,0.182 0.806,0.404 0.282,0.221 0.671,0.403 0.864,0.403 0.193,0 0.457,0.127 0.586,0.282 0.129,0.156 0.465,0.341 0.747,0.412 0.283,0.071 0.619,0.219 0.748,0.33 0.319,0.274 7.017,3.613 7.247,3.613 0.1,0 0.413,0.181 0.695,0.403 0.282,0.222 0.645,0.403 0.807,0.403 0.161,0 0.524,0.182 0.806,0.404 0.282,0.221 0.645,0.403 0.806,0.403 0.162,0 0.525,0.181 0.807,0.403 0.282,0.222 0.671,0.403 0.864,0.403 0.193,0 0.457,0.127 0.586,0.283 0.129,0.155 0.465,0.341 0.747,0.411 0.283,0.071 0.619,0.22 0.748,0.331 0.316,0.272 8.633,4.419 8.862,4.419 0.099,0 0.411,0.181 0.693,0.403 0.282,0.222 0.645,0.403 0.806,0.403 0.162,0 0.525,0.182 0.807,0.404 0.282,0.221 0.671,0.403 0.864,0.403 0.193,0 0.457,0.127 0.586,0.282 0.129,0.156 0.465,0.341 0.747,0.412 0.282,0.071 0.619,0.219 0.748,0.331 0.316,0.271 8.633,4.418 8.862,4.418 0.099,0 0.411,0.182 0.693,0.404 0.282,0.221 0.645,0.403 0.806,0.403 0.162,0 0.525,0.181 0.807,0.403 0.282,0.222 0.67,0.403 0.864,0.403 0.193,0 0.457,0.127 0.586,0.283 0.129,0.155 0.465,0.34 0.747,0.411 0.282,0.071 0.619,0.22 0.748,0.331 0.316,0.272 8.633,4.419 8.862,4.419 0.099,0 0.411,0.181 0.693,0.403 0.282,0.222 0.645,0.403 0.806,0.403 0.162,0 0.525,0.182 0.807,0.403 0.282,0.222 0.644,0.404 0.806,0.404 0.162,0 0.525,0.181 0.807,0.403 0.281,0.222 0.64,0.403 0.796,0.403 0.156,0 0.393,0.095 0.527,0.21 0.321,0.277 8.637,4.427 8.871,4.427 0.099,0 0.411,0.182 0.693,0.403 0.282,0.222 0.644,0.404 0.806,0.404 0.162,0 0.525,0.181 0.807,0.403 0.281,0.222 0.644,0.403 0.806,0.403 0.162,0 0.524,0.182 0.806,0.403 0.282,0.222 0.641,0.404 0.797,0.404 0.156,0 0.393,0.094 0.527,0.21 0.369,0.318 8.655,4.427 8.928,4.427 0.131,0 0.351,0.136 0.489,0.302 0.223,0.268 -1.245,0.302 -13.005,0.302 H 103.98 L 74.722,52.299 C 58.63,44.248 45.328,37.585 45.161,37.492 44.995,37.398 41.457,35.63 37.298,33.561 33.14,31.493 29.602,29.719 29.435,29.618 29.269,29.518 28.906,29.345 28.629,29.234 28.352,29.124 27.989,28.946 27.823,28.839 27.656,28.732 25.207,27.5 22.379,26.1 19.551,24.701 17.102,23.472 16.935,23.37 16.769,23.269 16.406,23.095 16.129,22.984 15.852,22.874 15.489,22.692 15.323,22.581 15.156,22.47 14.793,22.288 14.516,22.178 14.239,22.067 13.876,21.89 13.71,21.783 13.543,21.677 11.106,20.454 8.294,19.067 5.482,17.68 3.078,16.462 2.952,16.362 2.825,16.261 2.495,16.111 2.218,16.029 1.941,15.947 1.578,15.767 1.411,15.628 0.993,15.281 0,15.063 0,15.319 c 0,0.113 0.105,0.205 0.234,0.205 0.128,0 23.457,11.613 51.841,25.807 l 51.608,25.806 h 13.783 c 7.814,0 13.784,-0.077 13.784,-0.178 0,-0.097 -29.372,-14.858 -65.272,-32.801 C 30.078,16.215 0.547,1.402 0.353,1.24 0.035,0.975 0,0.988 0,1.364 m 381.138,8.098 c -9.308,4.649 -17.034,8.55 -17.168,8.669 -0.134,0.119 -0.315,0.215 -0.403,0.214 -0.27,-0.002 -13.663,6.721 -13.735,6.895 -0.037,0.09 -0.173,0.162 -0.302,0.161 -0.316,-0.003 -13.725,6.696 -13.811,6.899 -0.037,0.088 -0.182,0.16 -0.323,0.16 -0.268,0 -13.365,6.498 -13.729,6.811 -0.115,0.099 -0.449,0.24 -0.742,0.313 -0.294,0.074 -0.67,0.27 -0.836,0.436 -0.166,0.167 -0.383,0.303 -0.482,0.303 -0.217,0 -11.758,5.748 -12.053,6.004 -0.115,0.099 -0.449,0.24 -0.742,0.314 -0.294,0.074 -0.654,0.254 -0.802,0.402 -0.147,0.147 -0.51,0.329 -0.806,0.403 -0.296,0.074 -0.675,0.271 -0.841,0.437 -0.166,0.167 -0.375,0.302 -0.464,0.302 -0.218,0 -12.038,5.88 -12.165,6.052 -0.056,0.075 -0.344,0.196 -0.641,0.269 -0.297,0.072 -0.677,0.268 -0.843,0.434 -0.166,0.166 -0.375,0.302 -0.464,0.302 -0.218,0 -12.038,5.88 -12.165,6.052 -0.055,0.075 -0.344,0.195 -0.641,0.268 -0.297,0.073 -0.676,0.268 -0.843,0.434 -0.166,0.166 -0.381,0.302 -0.478,0.302 -0.096,0 -2.256,1.044 -4.799,2.32 l -4.624,2.32 -13.298,-0.051 -13.298,-0.052 41.723,-20.854 c 22.947,-11.47 41.752,-20.928 41.789,-21.018 0.037,-0.091 0.173,-0.163 0.302,-0.161 0.318,0.004 13.726,-6.692 13.811,-6.898 0.037,-0.089 0.181,-0.162 0.32,-0.162 0.269,0 13.379,-6.5 13.732,-6.809 0.115,-0.1 0.449,-0.242 0.742,-0.316 0.294,-0.073 0.67,-0.27 0.836,-0.436 0.166,-0.166 0.377,-0.301 0.468,-0.3 0.216,0.002 12.029,-5.88 12.161,-6.056 0.056,-0.073 0.344,-0.193 0.641,-0.266 0.298,-0.073 0.677,-0.268 0.843,-0.434 0.166,-0.166 0.396,-0.302 0.512,-0.302 0.401,0 2.67,-1.252 2.778,-1.533 0.091,-0.238 2.267,-0.282 13.936,-0.282 h 13.829 L 381.138,9.462 M 89.919,120.564 c 49.511,0.056 90.134,0.175 90.273,0.264 0.2,0.13 0.252,8.346 0.252,39.97 0,26.404 0.067,39.807 0.201,39.807 0.379,0 0.268,-79.252 -0.112,-79.794 l -0.314,-0.448 -90.16,0.05 -90.16,0.05 90.02,0.101 m 129.548,0.247 c -0.38,0.542 -0.491,79.794 -0.112,79.794 0.134,0 0.201,-13.403 0.201,-39.807 0,-31.624 0.052,-39.84 0.252,-39.97 0.139,-0.089 40.762,-0.208 90.273,-0.264 l 90.02,-0.101 -90.16,-0.05 -90.16,-0.05 -0.314,0.448 M 67.353,167.539 C 2.349,200.063 1.352,200.571 2.232,200.696 c 0.491,0.07 6.79,0.1 13.998,0.067 l 13.105,-0.06 -13.609,-0.052 C 1.373,200.596 1.685,200.618 3.629,199.807 c 0.277,-0.115 0.64,-0.293 0.806,-0.394 0.167,-0.101 1.891,-0.969 3.831,-1.928 1.941,-0.959 3.687,-1.828 3.881,-1.933 0.632,-0.339 1.05,-0.545 1.563,-0.771 0.491,-0.216 0.683,-0.317 1.512,-0.798 0.222,-0.129 0.63,-0.324 0.907,-0.435 0.277,-0.111 0.64,-0.292 0.806,-0.403 0.167,-0.111 0.53,-0.293 0.807,-0.403 0.277,-0.111 0.64,-0.284 0.806,-0.385 0.167,-0.101 2.253,-1.15 4.637,-2.331 2.385,-1.181 4.494,-2.232 4.688,-2.337 0.194,-0.104 0.557,-0.294 0.806,-0.422 0.25,-0.128 0.59,-0.31 0.756,-0.404 0.167,-0.094 0.53,-0.261 0.807,-0.371 0.277,-0.111 0.64,-0.292 0.806,-0.404 0.167,-0.111 0.53,-0.292 0.807,-0.403 0.277,-0.11 0.64,-0.284 0.806,-0.384 0.167,-0.101 2.253,-1.15 4.637,-2.331 2.384,-1.181 4.494,-2.233 4.688,-2.337 0.194,-0.104 0.557,-0.294 0.806,-0.422 0.25,-0.129 0.59,-0.311 0.756,-0.405 0.167,-0.095 0.53,-0.272 0.807,-0.394 0.277,-0.121 0.64,-0.302 0.806,-0.402 0.167,-0.099 0.53,-0.271 0.807,-0.381 0.277,-0.111 0.64,-0.284 0.806,-0.385 0.167,-0.1 2.616,-1.331 5.444,-2.733 2.827,-1.403 5.277,-2.637 5.443,-2.742 0.167,-0.105 0.53,-0.291 0.807,-0.413 0.277,-0.122 0.64,-0.303 0.806,-0.402 0.167,-0.1 0.529,-0.271 0.807,-0.382 0.277,-0.11 0.64,-0.283 0.806,-0.384 0.166,-0.101 2.616,-1.331 5.444,-2.734 2.827,-1.403 5.277,-2.636 5.443,-2.742 0.167,-0.105 0.529,-0.29 0.807,-0.412 0.277,-0.122 0.64,-0.304 0.806,-0.404 0.166,-0.099 0.529,-0.281 0.807,-0.403 0.277,-0.122 0.64,-0.294 0.806,-0.383 0.166,-0.089 2.616,-1.31 5.444,-2.712 2.827,-1.403 5.277,-2.637 5.443,-2.742 0.166,-0.105 0.529,-0.291 0.807,-0.413 0.277,-0.122 0.64,-0.303 0.806,-0.403 0.166,-0.1 0.529,-0.281 0.806,-0.403 0.278,-0.122 0.641,-0.294 0.807,-0.382 0.166,-0.088 2.979,-1.491 6.25,-3.119 3.271,-1.627 6.084,-3.043 6.25,-3.146 0.166,-0.104 0.529,-0.288 0.806,-0.41 0.278,-0.122 0.64,-0.293 0.807,-0.381 0.166,-0.088 2.979,-1.492 6.25,-3.119 3.271,-1.627 6.083,-3.043 6.25,-3.147 0.166,-0.103 0.529,-0.287 0.806,-0.409 0.277,-0.122 0.64,-0.294 0.807,-0.381 0.166,-0.088 3.934,-1.984 8.372,-4.214 l 8.07,-4.055 13.301,0.052 13.301,0.052 -5.645,2.808 c -3.105,1.544 -5.691,2.868 -5.746,2.942 -0.056,0.075 -0.344,0.195 -0.641,0.268 -0.297,0.073 -0.676,0.268 -0.843,0.434 -0.166,0.166 -0.376,0.302 -0.466,0.302 -0.216,0 -12.032,5.883 -12.163,6.056 -0.055,0.073 -0.344,0.192 -0.641,0.264 -0.297,0.073 -0.676,0.268 -0.843,0.435 -0.166,0.166 -0.432,0.302 -0.591,0.302 -0.16,0 -0.521,0.181 -0.803,0.403 -0.282,0.222 -0.588,0.403 -0.681,0.403 -0.219,0 -10.421,5.074 -10.554,5.249 -0.055,0.073 -0.344,0.192 -0.641,0.265 -0.297,0.072 -0.676,0.268 -0.842,0.434 -0.167,0.166 -0.433,0.302 -0.592,0.302 -0.16,0 -0.521,0.182 -0.802,0.403 -0.282,0.222 -0.594,0.404 -0.692,0.404 -0.214,0 -10.15,4.944 -10.45,5.2 -0.114,0.098 -0.448,0.238 -0.742,0.311 -0.293,0.074 -0.669,0.27 -0.835,0.436 -0.167,0.167 -0.433,0.303 -0.592,0.303 -0.159,0 -0.52,0.181 -0.802,0.403 -0.282,0.222 -0.593,0.403 -0.692,0.403 -0.214,0 -10.15,4.945 -10.45,5.2 -0.114,0.098 -0.448,0.238 -0.742,0.312 -0.293,0.074 -0.669,0.27 -0.835,0.436 -0.166,0.166 -0.433,0.302 -0.592,0.302 -0.159,0 -0.52,0.182 -0.802,0.403 -0.282,0.222 -0.593,0.404 -0.692,0.404 -0.214,0 -10.15,4.944 -10.45,5.2 -0.114,0.098 -0.448,0.238 -0.741,0.311 -0.294,0.074 -0.67,0.27 -0.836,0.436 -0.166,0.167 -0.433,0.303 -0.592,0.303 -0.159,0 -0.52,0.181 -0.802,0.403 -0.282,0.222 -0.593,0.403 -0.692,0.403 -0.213,0 -10.15,4.945 -10.449,5.2 -0.115,0.098 -0.449,0.238 -0.742,0.312 -0.294,0.073 -0.67,0.27 -0.836,0.436 -0.166,0.166 -0.433,0.302 -0.592,0.302 -0.159,0 -0.52,0.181 -0.802,0.403 -0.282,0.222 -0.645,0.403 -0.807,0.403 -0.161,0 -0.524,0.182 -0.806,0.404 -0.282,0.221 -0.594,0.403 -0.693,0.403 -0.217,0 -8.536,4.139 -8.84,4.398 -0.117,0.1 -0.548,0.293 -0.958,0.428 -0.409,0.135 -0.744,0.329 -0.744,0.431 0,0.103 -0.17,0.186 -0.376,0.186 -0.207,0 -0.607,0.182 -0.889,0.404 -0.282,0.221 -0.645,0.403 -0.806,0.403 -0.162,0 -0.525,0.181 -0.807,0.403 -0.282,0.222 -0.594,0.403 -0.693,0.403 -0.217,0 -8.536,4.139 -8.84,4.399 -0.117,0.1 -0.548,0.292 -0.958,0.427 -0.409,0.135 -0.744,0.33 -0.744,0.432 0,0.102 -0.169,0.186 -0.376,0.186 -0.207,0 -0.607,0.181 -0.889,0.403 -0.282,0.222 -0.645,0.403 -0.806,0.403 -0.162,0 -0.525,0.182 -0.807,0.404 -0.282,0.221 -0.647,0.403 -0.811,0.403 -0.408,0 -1.287,0.736 -1.101,0.922 0.083,0.083 0.31,0.018 0.504,-0.145 0.195,-0.162 29.727,-14.983 65.627,-32.936 35.899,-17.952 65.272,-32.713 65.272,-32.801 0,-0.089 -6.238,-0.154 -13.861,-0.145 l -13.861,0.016 -66.014,33.031 m 201.398,-32.912 c 0,0.083 28.193,14.252 62.651,31.486 76.228,38.126 68.598,34.346 68.598,33.983 0,-0.164 -0.114,-0.298 -0.254,-0.298 -0.139,0 -0.679,-0.226 -1.2,-0.504 -0.521,-0.277 -1.048,-0.504 -1.172,-0.504 -0.124,0 -0.361,-0.136 -0.527,-0.302 -0.167,-0.166 -0.546,-0.361 -0.843,-0.434 -0.297,-0.073 -0.586,-0.192 -0.641,-0.265 -0.131,-0.172 -11.948,-6.055 -12.163,-6.055 -0.09,0 -0.3,-0.136 -0.466,-0.302 -0.167,-0.166 -0.546,-0.362 -0.843,-0.435 -0.297,-0.072 -0.586,-0.193 -0.641,-0.268 -0.128,-0.172 -11.947,-6.052 -12.165,-6.052 -0.089,0 -0.298,-0.136 -0.464,-0.302 -0.166,-0.166 -0.545,-0.363 -0.841,-0.437 -0.296,-0.074 -0.659,-0.256 -0.806,-0.403 -0.148,-0.148 -0.511,-0.328 -0.809,-0.4 -0.297,-0.073 -0.585,-0.192 -0.641,-0.266 -0.131,-0.172 -10.333,-5.248 -10.55,-5.248 -0.09,0 -0.3,-0.136 -0.466,-0.302 -0.166,-0.166 -0.545,-0.363 -0.841,-0.437 -0.296,-0.075 -0.659,-0.256 -0.806,-0.404 -0.148,-0.147 -0.508,-0.328 -0.802,-0.402 -0.293,-0.073 -0.627,-0.215 -0.742,-0.314 -0.295,-0.255 -11.836,-6.004 -12.053,-6.004 -0.099,0 -0.316,-0.136 -0.482,-0.302 -0.166,-0.166 -0.542,-0.362 -0.836,-0.436 -0.293,-0.074 -0.627,-0.215 -0.742,-0.314 -0.295,-0.256 -11.836,-6.004 -12.053,-6.004 -0.099,0 -0.316,-0.136 -0.482,-0.303 -0.166,-0.166 -0.542,-0.362 -0.836,-0.436 -0.293,-0.073 -0.627,-0.215 -0.742,-0.314 -0.295,-0.255 -11.836,-6.004 -12.053,-6.004 -0.099,0 -0.316,-0.136 -0.482,-0.302 -0.166,-0.166 -0.545,-0.362 -0.842,-0.434 -0.297,-0.073 -0.586,-0.193 -0.641,-0.267 -0.132,-0.175 -11.946,-6.057 -12.162,-6.055 -0.091,0.001 -0.302,-0.134 -0.468,-0.3 -0.166,-0.167 -0.542,-0.363 -0.835,-0.436 -0.294,-0.074 -0.628,-0.216 -0.742,-0.316 -0.354,-0.309 -13.463,-6.809 -13.732,-6.809 -0.14,0 -0.284,-0.075 -0.321,-0.167 -0.037,-0.092 -2.607,-1.43 -5.712,-2.974 l -5.645,-2.807 13.306,-0.049 13.307,-0.049 51.593,25.805 c 28.376,14.193 51.761,25.805 51.967,25.805 0.206,0 -22.944,-11.658 -51.443,-25.907 L 296.37,134.476 h -13.81 c -7.596,0 -13.81,0.068 -13.809,0.151 m -78.277,66.129 c 5.239,0.03 13.813,0.03 19.052,0 5.24,-0.03 0.953,-0.054 -9.526,-0.054 -10.479,0 -14.766,0.024 -9.526,0.054"
       id="path3" />
    <path
       fill-rule="evenodd"
       fill="#d95d71"
       stroke="none"
       d="m 0,0.574 c 0,0.62 -1.286,-0.034 65.978,33.584 35.9,17.943 65.272,32.704 65.272,32.801 0,0.101 -5.97,0.178 -13.784,0.178 H 103.683 L 52.075,41.331 C 2.967,16.774 -0.126,15.252 0.034,15.722 0.071,15.83 23.327,27.533 51.714,41.729 l 51.613,25.809 14.415,-0.002 c 8.679,-0.001 14.535,-0.078 14.716,-0.192 0.449,-0.284 0.278,-0.391 -4.131,-2.593 -2.218,-1.107 -5.62,-2.805 -7.561,-3.773 C 87.847,44.554 1.445,1.301 1.251,1.148 0.627,0.658 2.556,0.611 23.228,0.608 c 21.539,-0.003 21.719,0 22.096,0.405 0.442,0.475 120.336,60.478 120.844,60.478 0.651,10e-4 0.667,-0.663 0.767,-30.644 l 0.101,-30.141 5.948,-0.057 c 3.271,-0.031 6.152,-0.006 6.401,0.054 l 0.454,0.111 v 39.674 c 0,30.588 -0.056,39.729 -0.242,39.915 -0.188,0.188 -20.439,0.242 -89.92,0.242 C 30.027,80.645 0,80.713 0,80.847 c 0,0.275 179.203,0.28 179.926,0.005 l 0.517,-0.196 0.05,-39.875 0.051,-39.874 H 200 219.456 l 0.051,39.874 0.05,39.875 0.517,0.196 C 220.797,81.127 400,81.122 400,80.847 c 0,-0.134 -30.027,-0.202 -89.677,-0.202 -69.481,0 -89.732,-0.054 -89.92,-0.242 -0.186,-0.186 -0.242,-9.327 -0.242,-39.915 V 0.814 l 0.454,-0.111 c 0.249,-0.06 3.13,-0.085 6.401,-0.054 l 5.948,0.057 0.101,30.141 c 0.101,30.242 0.111,30.645 0.801,30.645 0.489,0 120.513,-60.024 121.002,-60.513 0.583,-0.583 14.285,-0.567 14.285,0.016 0,0.08 -29.575,14.927 -65.722,32.993 -47.021,23.5 -65.708,32.933 -65.672,33.149 0.043,0.265 1.848,0.309 14.593,0.354 l 14.543,0.052 66.183,-33.099 C 395.073,3.438 400,0.932 400,0.403 400,0.269 333.199,0.202 200,0.202 5.735,0.202 0,0.212 0,0.574 m 166.431,30.374 c 0,29.887 -0.002,30.04 -0.403,30.094 C 165.597,61.1 45.913,1.332 45.8,1.002 45.756,0.875 67.039,0.824 106.082,0.857 l 60.349,0.05 V 30.948 M 354.234,0.991 c 0,0.297 -119.79,60.122 -120.252,60.056 l -0.413,-0.059 -0.052,-29.839 C 233.488,14.738 233.508,1.197 233.561,1.058 233.679,0.749 354.234,0.681 354.234,0.991 m 44.355,-0.022 c 0,0.09 -0.658,0.482 -1.462,0.872 -0.804,0.39 -30.509,15.241 -66.011,33.002 l -64.55,32.294 h -13.827 c -7.605,0 -13.827,-0.068 -13.825,-0.151 0.001,-0.083 21.753,-11.026 48.337,-24.318 26.583,-13.292 56.004,-28.003 65.378,-32.691 9.375,-4.688 17.166,-8.67 17.313,-8.847 0.295,-0.355 28.647,-0.513 28.647,-0.161 M 0,23.374 c 0,0.118 0.147,0.215 0.326,0.215 0.18,0 18.506,9.095 40.725,20.211 22.219,11.117 41.714,20.868 43.323,21.67 1.608,0.802 2.924,1.55 2.924,1.663 0,0.139 -14.205,0.222 -43.699,0.256 l -43.7,0.05 43.549,0.055 C 67.399,67.525 87.2,67.501 87.45,67.44 88.402,67.211 87.727,66.76 82.801,64.336 80.007,62.962 76.905,61.429 75.907,60.93 -4.387,20.778 0,22.948 0,23.374 M 355.979,45.01 c -31.272,15.626 -43.661,21.911 -43.625,22.127 0.045,0.268 5.08,0.303 43.899,0.303 l 43.848,0.001 -43.599,-0.052 c -34.679,-0.041 -43.597,-0.103 -43.592,-0.303 0.006,-0.25 86.358,-43.508 86.838,-43.501 0.139,0.002 0.252,-0.087 0.252,-0.198 0,-0.372 -0.222,-0.263 -44.021,21.623 M 0,120.766 c 0,0.134 30.027,0.202 89.677,0.202 69.481,0 89.732,0.054 89.92,0.242 0.186,0.186 0.242,9.328 0.242,39.919 v 39.677 l 0.655,-0.023 c 0.36,-0.013 0.496,-0.065 0.302,-0.116 -0.334,-0.087 -0.352,-2.157 -0.352,-39.9 v -39.809 l -0.518,-0.197 C 179.203,120.486 0,120.491 0,120.766 m 220.01,0.006 -0.454,0.183 v 39.81 c 0,37.745 -0.018,39.815 -0.352,39.902 -0.194,0.051 -0.058,0.103 0.302,0.116 l 0.655,0.023 v -39.677 c 0,-30.591 0.056,-39.733 0.242,-39.919 0.188,-0.188 20.439,-0.242 89.92,-0.242 59.65,0 89.677,-0.068 89.677,-0.202 0,-0.262 -179.339,-0.255 -179.99,0.006 M 43.615,134.224 c 33.562,0.039 43.698,0.107 43.637,0.29 -0.097,0.29 -86.401,43.497 -86.899,43.505 -0.194,0.003 -0.353,0.102 -0.353,0.22 0,0.426 -4.387,2.596 75.907,-37.556 0.998,-0.499 4.1,-2.032 6.894,-3.406 4.853,-2.388 5.502,-2.806 4.783,-3.082 -0.175,-0.067 -19.976,-0.1 -44.002,-0.072 l -43.683,0.049 43.716,0.052 m 23.235,32.985 c -36.363,18.202 -66.152,33.207 -66.197,33.345 -0.058,0.179 0.175,0.244 0.792,0.225 0.533,-0.017 0.683,-0.063 0.385,-0.119 -0.36,-0.068 16.954,-8.814 65.597,-33.138 l 66.085,-33.046 H 147.3 c 7.584,0 13.789,0.072 13.789,0.161 0,0.088 -29.373,14.849 -65.272,32.801 -35.9,17.953 -65.409,32.75 -65.575,32.883 -0.166,0.133 -0.484,0.286 -0.706,0.34 -0.294,0.072 -0.246,0.105 0.177,0.122 0.521,0.021 132.086,-65.552 132.685,-66.131 0.532,-0.515 -1.016,-0.572 -14.918,-0.555 l -14.516,0.019 -66.114,33.093 m 200.76,-32.825 c -0.066,0.171 -0.086,0.338 -0.044,0.371 0.041,0.033 29.497,14.77 65.456,32.748 35.96,17.978 65.579,32.826 65.821,32.995 0.493,0.346 1.157,0.411 1.157,0.114 0,-0.106 -29.531,-14.963 -65.625,-33.014 -36.093,-18.051 -65.624,-32.888 -65.625,-32.971 0,-0.083 6.215,-0.151 13.811,-0.151 h 13.81 l 51.613,25.806 c 52.923,26.462 52.016,26.017 52.016,25.504 0,-0.166 -0.103,-0.302 -0.228,-0.302 -0.125,0 -23.357,-11.568 -51.627,-25.706 l -51.399,-25.705 h -14.508 c -12.891,0 -14.522,0.034 -14.628,0.311 m 44.747,0.029 c -0.072,0.188 -0.047,0.37 0.056,0.406 0.103,0.036 19.672,9.812 43.486,21.723 44.449,22.233 44.101,22.062 44.101,21.697 0,-0.118 -0.113,-0.213 -0.252,-0.211 -0.48,0.007 -86.832,-43.251 -86.838,-43.501 -0.005,-0.2 8.913,-0.262 43.592,-0.303 l 43.599,-0.052 -43.807,-0.049 c -40.97,-0.047 -43.815,-0.028 -43.937,0.29 m -206.701,35.799 c -33.094,16.55 -60.16,30.179 -60.146,30.287 0.013,0.108 0.125,0.23 0.247,0.271 0.123,0.041 0.198,-0.02 0.167,-0.134 -0.077,-0.284 119.597,-60.134 120.104,-60.065 0.401,0.054 0.403,0.207 0.403,30.145 0,19.971 0.068,30.068 0.202,30.023 0.286,-0.095 0.38,-59.694 0.094,-60.227 -0.115,-0.215 -0.365,-0.391 -0.555,-0.391 -0.19,0.001 -27.422,13.541 -60.516,30.091 m 127.617,-29.7 c -0.286,0.533 -0.192,60.132 0.094,60.227 0.134,0.045 0.202,-10.052 0.202,-30.023 v -30.091 l 0.413,-0.059 c 0.519,-0.074 120.298,59.802 120.14,60.056 -0.062,0.102 0.028,0.184 0.201,0.184 0.173,0 0.312,-0.113 0.309,-0.252 -0.005,-0.283 -120.265,-60.452 -120.804,-60.44 -0.19,0.004 -0.44,0.183 -0.555,0.398"
       id="path4" />
  </g>
</svg>
