<?xml version="1.0" encoding="UTF-8" standalone="no"?>
<svg
   xmlns:dc="http://purl.org/dc/elements/1.1/"
   xmlns:cc="http://creativecommons.org/ns#"
   xmlns:rdf="http://www.w3.org/1999/02/22-rdf-syntax-ns#"
   xmlns:svg="http://www.w3.org/2000/svg"
   xmlns="http://www.w3.org/2000/svg"
   xmlns:sodipodi="http://sodipodi.sourceforge.net/DTD/sodipodi-0.dtd"
   xmlns:inkscape="http://www.inkscape.org/namespaces/inkscape"
   inkscape:version="1.0 (4035a4fb49, 2020-05-01)"
   sodipodi:docname="Suomi.svg"
   viewBox="0, 0, 400,244.7058823529412"
   height="40"
   width="64"
   version="1.1"
   id="svg">
  <metadata
     id="metadata13">
    <rdf:RDF>
      <cc:Work
         rdf:about="">
        <dc:format>image/svg+xml</dc:format>
        <dc:type
           rdf:resource="http://purl.org/dc/dcmitype/StillImage" />
      </cc:Work>
    </rdf:RDF>
  </metadata>
  <defs
     id="defs11" />
  <sodipodi:namedview
     inkscape:current-layer="svg"
     inkscape:window-maximized="1"
     inkscape:window-y="-9"
     inkscape:window-x="-9"
     inkscape:cy="20"
     inkscape:cx="32"
     inkscape:zoom="18.875"
     showgrid="false"
     id="namedview9"
     inkscape:window-height="1271"
     inkscape:window-width="2400"
     inkscape:pageshadow="2"
     inkscape:pageopacity="0"
     guidetolerance="10"
     gridtolerance="10"
     objecttolerance="10"
     borderopacity="1"
     bordercolor="#666666"
     pagecolor="#ffffff" />
  <g
     transform="matrix(1,0,0,1.0212502,0,-2.6470588)"
     id="svgg">
    <path
       fill-rule="evenodd"
       fill="#fcfcfc"
       stroke="none"
       d="m 0,44.308 v 44.309 h 54.937 c 30.216,0 55.112,-0.067 55.324,-0.149 0.352,-0.134 0.388,-4.266 0.388,-44.308 V 0 H 55.324 0 v 44.308 m 178.274,-0.061 0.061,44.247 110.833,0.062 L 400,88.617 V 44.309 0 H 289.106 178.212 l 0.062,44.247 M 0,200.49 v 44.308 h 55.324 55.325 v -44.16 c 0,-40.042 -0.036,-44.174 -0.388,-44.308 -0.212,-0.082 -25.108,-0.149 -55.324,-0.149 H 0 v 44.309 m 178.376,-44.146 c -0.09,0.09 -0.163,20.029 -0.163,44.309 v 44.145 H 289.106 400 V 200.49 156.181 H 289.27 c -60.902,0 -110.804,0.074 -110.894,0.163"
       id="path0" />
    <path
       fill-rule="evenodd"
       fill="#053584"
       stroke="none"
       d="m 111.383,44.169 c 0,39.826 -0.038,44.206 -0.385,44.553 -0.347,0.347 -5.739,0.384 -55.691,0.384 H 0 v 33.293 33.293 h 55.307 c 49.952,0 55.344,0.037 55.691,0.384 0.347,0.347 0.385,4.727 0.385,44.553 v 44.169 h 33.17 33.17 v -44.259 c 0,-34.098 0.068,-44.327 0.294,-44.554 0.228,-0.227 25.252,-0.293 111.138,-0.293 H 400 V 122.399 89.106 H 289.155 c -85.886,0 -110.91,-0.066 -111.138,-0.293 -0.226,-0.227 -0.294,-10.456 -0.294,-44.554 V 0 h -33.17 -33.17 v 44.169"
       id="path1" />
    <path
       fill-rule="evenodd"
       fill="#bc100c0"
       stroke="none"
       d=""
       id="path2" />
    <path
       fill-rule="evenodd"
       fill="#bc100c0"
       stroke="none"
       d=""
       id="path3" />
    <path
       fill-rule="evenodd"
       fill="#bc100c0"
       stroke="none"
       d=""
       id="path4" />
  </g>
</svg>
