<?xml version="1.0" encoding="UTF-8" standalone="no"?>
<svg
   xmlns:dc="http://purl.org/dc/elements/1.1/"
   xmlns:cc="http://creativecommons.org/ns#"
   xmlns:rdf="http://www.w3.org/1999/02/22-rdf-syntax-ns#"
   xmlns:svg="http://www.w3.org/2000/svg"
   xmlns="http://www.w3.org/2000/svg"
   xmlns:sodipodi="http://sodipodi.sourceforge.net/DTD/sodipodi-0.dtd"
   xmlns:inkscape="http://www.inkscape.org/namespaces/inkscape"
   inkscape:version="1.0 (4035a4fb49, 2020-05-01)"
   sodipodi:docname="Svenska.svg"
   viewBox="0, 0, 400,250.19607843137257"
   height="40"
   width="64"
   version="1.1"
   id="svg">
  <metadata
     id="metadata13">
    <rdf:RDF>
      <cc:Work
         rdf:about="">
        <dc:format>image/svg+xml</dc:format>
        <dc:type
           rdf:resource="http://purl.org/dc/dcmitype/StillImage" />
      </cc:Work>
    </rdf:RDF>
  </metadata>
  <defs
     id="defs11" />
  <sodipodi:namedview
     inkscape:current-layer="svg"
     inkscape:window-maximized="1"
     inkscape:window-y="-9"
     inkscape:window-x="-9"
     inkscape:cy="20"
     inkscape:cx="32"
     inkscape:zoom="18.875"
     showgrid="false"
     id="namedview9"
     inkscape:window-height="1271"
     inkscape:window-width="2400"
     inkscape:pageshadow="2"
     inkscape:pageopacity="0"
     guidetolerance="10"
     gridtolerance="10"
     objecttolerance="10"
     borderopacity="1"
     bordercolor="#666666"
     pagecolor="#ffffff" />
  <g
     transform="matrix(1.0001592,0,0,0.99853561,-0.03184285,0.12481695)"
     id="svgg">
    <path
       fill-rule="evenodd"
       fill="#fccc04"
       stroke="none"
       d="m 125.407,49.899 c 0,48.023 -0.017,49.914 -0.458,50.313 -0.423,0.383 -5.134,0.414 -62.703,0.414 H 0 v 24.53 24.531 h 62.289 c 60.027,0 62.304,0.017 62.703,0.458 0.383,0.423 0.415,4.273 0.415,50.313 v 49.855 h 24.656 24.655 V 200.3 c 0,-38.564 0.069,-50.081 0.301,-50.313 0.233,-0.232 25.598,-0.3 112.641,-0.3 H 400 v -24.531 -24.53 H 287.66 c -87.043,0 -112.408,-0.068 -112.641,-0.301 -0.232,-0.231 -0.301,-11.748 -0.301,-50.312 V 0 h -24.655 -24.656 v 49.899"
       id="path0" />
    <path
       fill-rule="evenodd"
       fill="#649464"
       stroke="none"
       d="M 124.656,49.812 124.531,99.75 62.265,99.813 C 21.046,99.855 0,99.96 0,100.126 c 0,0.426 124.272,0.337 124.626,-0.09 0.207,-0.249 0.265,-13.566 0.218,-50.25 l -0.064,-49.911 -0.124,49.937 m 50.374,0.069 -0.061,50.006 0.642,0.244 C 176.508,100.472 400,100.467 400,100.125 400,99.959 362.266,99.854 287.672,99.813 L 175.344,99.75 175.218,49.812 175.092,-0.125 175.03,49.881 M 0,150.187 c 0,0.166 21.046,0.271 62.265,0.313 l 62.266,0.063 0.126,49.938 0.126,49.937 0.061,-49.95 c 0.048,-38.585 -0.006,-50.018 -0.238,-50.25 C 124.214,149.846 0,149.795 0,150.187 m 175.532,0.009 -0.563,0.226 0.061,50.008 0.062,50.008 0.126,-49.937 0.126,-49.938 112.328,-0.063 C 362.266,150.459 400,150.353 400,150.187 c 0,-0.324 -223.66,-0.316 -224.468,0.009"
       id="path1" />
    <path
       fill-rule="evenodd"
       fill="#046ca4"
       stroke="none"
       d="m 0,49.812 v 49.813 h 62.203 62.203 V 49.812 0 H 62.203 0 v 49.812 m 175.219,-0.154 v 49.658 l 0.563,0.151 c 0.31,0.083 50.886,0.152 112.391,0.154 L 400,99.625 V 49.812 0 H 287.61 175.219 V 49.658 M 0,200.501 v 49.812 h 62.203 62.203 V 200.501 150.688 H 62.203 0 v 49.813 m 175.657,-49.64 c -0.415,0.108 -0.438,2.69 -0.438,49.783 v 49.669 H 287.61 400 v -49.812 -49.813 l -111.952,0.029 c -61.574,0.016 -112.15,0.081 -112.391,0.144"
       id="path2" />
    <path
       fill-rule="evenodd"
       fill="#c09c58"
       stroke="none"
       d="m 124.906,49.907 c 0,41.593 -0.056,49.953 -0.338,50.187 -0.247,0.205 -17.059,0.298 -62.515,0.344 l -62.178,0.064 62.352,0.062 c 60.13,0.06 62.366,0.045 62.765,-0.396 C 125.486,99.623 125.649,0 125.156,0 c -0.166,0 -0.25,16.802 -0.25,49.907 m 49.874,0.043 c -0.048,38.683 0.007,50.143 0.239,50.375 0.233,0.233 25.543,0.287 112.703,0.239 L 400.125,100.502 287.81,100.376 C 210.03,100.289 175.414,100.17 175.232,99.988 175.052,99.808 174.95,84.178 174.906,49.8 L 174.842,-0.125 174.78,49.95 M 62.053,149.875 c 45.456,0.046 62.268,0.139 62.515,0.344 0.282,0.234 0.338,8.594 0.338,50.187 0,33.104 0.084,49.907 0.25,49.907 0.531,0 0.325,-99.73 -0.207,-100.212 -0.424,-0.383 -5.086,-0.409 -62.766,-0.352 l -62.308,0.062 62.178,0.064 m 112.966,0.112 c -0.232,0.233 -0.287,11.693 -0.239,50.376 l 0.062,50.075 0.064,-49.925 c 0.044,-34.378 0.146,-50.008 0.326,-50.188 0.182,-0.182 34.798,-0.301 112.578,-0.388 l 112.315,-0.126 -112.403,-0.062 c -87.16,-0.048 -112.47,0.006 -112.703,0.238"
       id="path3" />
    <path
       fill-rule="evenodd"
       fill="#449c88"
       stroke="none"
       d="m 124.467,49.749 -0.061,49.875 -62.266,0.063 -62.265,0.064 62.273,0.062 c 49.634,0.049 62.297,-0.002 62.392,-0.251 0.066,-0.172 0.09,-22.672 0.054,-50 l -0.065,-49.687 -0.062,49.874 m 50.916,49.938 c 0.064,0.103 50.657,0.16 112.429,0.126 61.772,-0.033 100.43,-0.09 85.905,-0.125 C 304.172,99.521 175.28,99.52 175.383,99.687 m -113.181,50.939 62.202,0.063 0.064,49.812 0.065,49.812 -0.001,-49.875 -10e-4,-49.875 -62.266,-10e-4 H 0 l 62.202,0.064 m 113.181,0 c -0.103,0.167 128.789,0.166 198.334,-0.002 14.525,-0.034 -24.133,-0.091 -85.905,-0.125 -61.772,-0.033 -112.365,0.024 -112.429,0.127"
       id="path4" />
  </g>
</svg>
